# xmcd
# 
# Track frame offsets:
#     150
#     13347
#     21672
#     34196
#     53402
#     69255
#     86276
#     99005
#     113606
#     124485
#     135680
#     153615
#     168627
#     186161
#     199201
#     216595
#     230810
#     243234
#     256571
#     272899
# 
# Disc length: 3792
# 
# Revision: 2
# Processed by: cddbd v1.5.2PL0 Copyright (c) Steve Scherf et al.
# Submitted via: fre:ac v1.0.31
# 
DISCID=1d0ece14
DTITLE=Dolly Parton - The Tour Collection Disc 2: Covers
DYEAR=2008
DGENRE=Folk/Country
TTITLE0=(Your Love Has Lifted Me) Higher and Higher
TTITLE1=Life's Like Poetry
TTITLE2=Help!
TTITLE3=Boulder to Birmingham
TTITLE4=Release Me
TTITLE5=Once in a Very Blue Moon
TTITLE6=In the Ghetto
TTITLE7=Harper Valley PTA
TTITLE8=Games People Play
TTITLE9=Put a Little Love in Your Heart
TTITLE10=Starting All Over
TTITLE11=Even a Fool Would Let Go
TTITLE12=Great Balls of Fire
TTITLE13=Time for Me to Fly
TTITLE14=Save the Last Dance for Me
TTITLE15=Send Me the Pillow That You Dream on
TTITLE16=D-I-V-O-R-C-E
TTITLE17=The Carroll County Accident
TTITLE18=Detroit City
TTITLE19=Wings of a Dove
EXTD=YEAR: 2008
EXTT0=
EXTT1=
EXTT2=
EXTT3=
EXTT4=
EXTT5=
EXTT6=
EXTT7=
EXTT8=
EXTT9=
EXTT10=
EXTT11=
EXTT12=
EXTT13=
EXTT14=
EXTT15=
EXTT16=
EXTT17=
EXTT18=
EXTT19=
PLAYORDER=
